<?xml version="1.0" encoding="UTF-8"?>
<svg width="210px" height="33px" viewBox="0 0 210 33" version="1.1" xmlns="http://www.w3.org/2000/svg" xmlns:xlink="http://www.w3.org/1999/xlink">
    <!-- Generator: Sketch 49.2 (51160) - http://www.bohemiancoding.com/sketch -->
    <title>Page 1</title>
    <desc>Created with Sketch.</desc>
    <defs>
        <polygon id="path-1" points="0.0176801479 0.0883129032 12.8485677 0.0883129032 12.8485677 22.8064516 0.0176801479 22.8064516"></polygon>
        <polygon id="path-3" points="0.219356399 0.0883129032 13.0517032 0.0883129032 13.0517032 22.8064516 0.219356399 22.8064516"></polygon>
        <polygon id="path-5" points="7.11209682e-05 0.157612903 28.5270097 0.157612903 28.5270097 26.4823097 7.11209682e-05 26.4823097"></polygon>
    </defs>
    <g id="Page-1" stroke="none" stroke-width="1" fill="none" fill-rule="evenodd">
        <g id="Artboard" transform="translate(-108.000000, -53.000000)">
            <g id="Page-1" transform="translate(108.000000, 53.000000)">
                <polygon id="Fill-1" fill="#1D1D1B" points="141.521552 26.5687032 145.161777 4.75512258 155.457197 4.75512258 154.832616 8.49447742 148.281971 8.49447742 147.512874 13.1070258 152.334971 13.1070258 151.721455 16.7845097 146.898455 16.7845097 145.887068 22.8284452 152.710035 22.8284452 152.085681 26.5687032"></polygon>
                <g id="Group-45" transform="translate(0.000000, 0.068194)">
                    <path d="M161.026465,26.5005097 L162.796787,15.9052194 C163.134142,13.8804129 163.003174,13.2273806 161.748142,13.2273806 C160.967755,13.2273806 159.949819,13.9425097 159.42211,14.5968968 L157.434335,26.5005097 L153.902045,26.5005097 L156.634981,10.1410581 L160.16569,10.1410581 L159.979626,11.2630903 C160.902271,10.3901226 162.018658,9.79783226 163.1574,9.79783226 C166.509497,9.79783226 166.989561,11.9488645 166.349852,15.7812516 L164.557174,26.5005097 L161.026465,26.5005097 Z" id="Fill-2" fill="#1D1D1B"></path>
                    <path d="M179.465187,18.3366355 C180.216445,13.8494097 179.095316,9.79799032 175.145961,9.79799032 C171.731768,9.79799032 168.828574,12.8513452 167.910671,18.3366355 C167.069768,23.3852161 168.614961,26.8447968 172.507187,26.8447968 C174.573316,26.8447968 176.53151,25.8776677 178.031994,23.8837968 L175.84551,21.9204097 C174.993542,22.8870871 174.408026,23.353829 173.151639,23.353829 C171.77309,23.353829 170.971703,22.2331516 171.245606,19.7075065 L179.178187,19.7075065 C179.278897,19.2721516 179.395413,18.7728935 179.465187,18.3366355 M176.210865,16.6855387 L171.749381,16.6855387 C172.329703,14.2849903 173.246252,13.1008613 174.562703,13.1008613 C176.090284,13.1008613 176.363735,14.6912161 176.210865,16.6855387" id="Fill-4" fill="#1D1D1B"></path>
                    <path d="M189.856258,14.224271 C189.339613,13.7252387 188.762677,13.412271 187.924935,13.412271 C186.998452,13.412271 186.166129,13.911529 185.415097,14.814529 L183.464581,26.5004645 L179.932516,26.5004645 L182.665226,10.1410129 L186.197516,10.1410129 L186.009645,11.2630452 C186.727258,10.5456581 187.960613,9.7977871 189.125548,9.7977871 C190.175548,9.7977871 190.816161,10.0793677 191.472806,10.6389161 L189.856258,14.224271 Z" id="Fill-6" fill="#1D1D1B"></path>
                    <g id="Group-10" transform="translate(189.677419, 9.709677)">
                        <mask id="mask-2" fill="white">
                            <use xlink:href="#path-1"></use>
                        </mask>
                        <g id="Clip-9"></g>
                        <path d="M10.3981161,15.1096355 L12.8485677,0.431312903 L9.31808387,0.431312903 L9.16408387,1.33566774 C8.60205161,0.586667742 7.69814839,0.0883129032 6.65085806,0.0883129032 C3.2082129,0.0883129032 1.17595484,3.64024839 0.345664516,8.62695806 C-0.617625806,14.3924742 0.572148387,17.1351194 3.50447097,17.1351194 C4.64208387,17.1351194 5.84879355,16.5421516 6.77369677,15.6700871 C6.27714839,18.6308613 5.61937419,19.3477968 1.81905161,20.063829 L2.31830968,22.8064742 C7.83047097,22.058829 9.58227742,20.0019581 10.3981161,15.1096355 Z M7.33008387,12.3353774 C6.80147097,12.9893129 5.78330968,13.7060226 4.91553548,13.7060226 C3.44779355,13.7060226 3.35837419,12.0867645 3.95901935,8.50253871 C4.59240645,4.69905484 5.29963226,3.51763548 6.55601935,3.51763548 C7.54482581,3.51763548 8.20824516,4.20182903 8.56840645,4.91876452 L7.33008387,12.3353774 Z" id="Fill-8" fill="#1D1D1B" mask="url(#mask-2)"></path>
                    </g>
                    <polygon id="Fill-11" fill="#1D1D1B" points="202.66549 26.5005097 205.397297 10.1410581 208.929361 10.1410581 206.198458 26.5005097"></polygon>
                    <path d="M43.0834871,26.844729 C38.202229,26.844729 36.9643581,21.8896323 38.0105194,15.6262129 C39.0614226,9.32982581 42.0192613,4.34469677 46.8989387,4.34469677 C50.0724226,4.34469677 52.0863903,6.08995484 52.3541968,9.86114839 L48.6534548,11.0452774 C48.4588097,8.98795484 47.6258097,8.23827742 46.1885516,8.23827742 C43.9438097,8.23827742 42.6282613,10.9208581 41.8521645,15.5645677 C41.0776484,20.2069226 41.5475516,22.9502452 43.7927452,22.9502452 C46.0686484,22.9502452 46.9551645,21.7652129 47.4952935,18.5237613 L44.5017774,18.5237613 L45.1101,14.8774387 L51.7271323,14.8774387 L51.100971,18.6181484 C50.2273258,23.8523419 47.4535194,26.844729 43.0834871,26.844729" id="Fill-13" fill="#1D1D1B"></path>
                    <path d="M64.8941097,18.3059935 C65.8149484,12.7893161 63.889271,9.79783226 60.3881419,9.79783226 C56.854271,9.79783226 53.8898839,12.8514129 52.9694968,18.3680903 C52.0488839,23.8838645 53.9788516,26.8446387 57.5115935,26.8446387 C61.0147548,26.8446387 63.9737226,23.8213161 64.8941097,18.3059935 M61.2909161,18.3680903 C60.8338839,21.1098323 59.7994645,23.353671 58.1242065,23.353671 C56.4177871,23.353671 56.0612387,21.3591226 56.5726903,18.3059935 C57.0814323,15.2510581 58.0386258,13.2867677 59.7443677,13.2867677 C61.420529,13.2867677 61.7960452,15.345671 61.2909161,18.3680903" id="Fill-15" fill="#1D1D1B"></path>
                    <path d="M72.9854323,26.1276129 C72.1327871,26.5629677 71.2184968,26.8447742 70.1712065,26.8447742 C67.6268194,26.8447742 66.6088839,25.4102258 67.2070452,21.827129 L68.5749806,13.6312581 L66.6294323,13.6312581 L67.2111097,10.1409677 L69.1584645,10.1409677 L69.9124323,5.62212903 L73.7513677,3.78496774 L72.690529,10.1409677 L75.8646903,10.1409677 L75.2812065,13.6312581 L72.1081742,13.6312581 L70.7553677,21.7334194 C70.5510129,22.9502903 70.9344323,23.3538065 71.7714968,23.3538065 C72.4602065,23.3538065 73.220271,23.1051935 73.9963677,22.5752258 L72.9854323,26.1276129 Z" id="Fill-17" fill="#1D1D1B"></path>
                    <path d="M87.3758516,18.3366355 C88.1248516,13.8494097 87.0046258,9.79799032 83.0543677,9.79799032 C79.6413032,9.79799032 76.7372065,12.8513452 75.8206581,18.3366355 C74.9786258,23.3852161 76.5263032,26.8447968 80.4171742,26.8447968 C82.4828516,26.8447968 84.4396903,25.8776677 85.9410774,23.8837968 L83.7545935,21.9204097 C82.9039806,22.8870871 82.3171097,23.353829 81.0598194,23.353829 C79.6833032,23.353829 78.8823677,22.2331516 79.1537871,19.7075065 L87.0863677,19.7075065 C87.1888839,19.2721516 87.3022387,18.7728935 87.3758516,18.3366355 M84.119271,16.6855387 L79.6584645,16.6855387 C80.2390129,14.2849903 81.1546581,13.1008613 82.4729161,13.1008613 C83.9993677,13.1008613 84.2728194,14.6912161 84.119271,16.6855387" id="Fill-19" fill="#1D1D1B"></path>
                    <path d="M100.596323,18.3059935 C101.556677,12.5402516 100.36871,9.79783226 97.4352581,9.79783226 C96.2987742,9.79783226 95.0913871,10.3901226 94.1691935,11.2630903 L95.4167742,3.78483226 L91.5760323,5.62221935 L88.0909355,26.5005097 L91.6225484,26.5005097 L91.7738387,25.5970581 C92.3379032,26.3451548 93.2422581,26.8446387 94.2902258,26.8446387 C97.7326452,26.8446387 99.7619677,23.2927032 100.596323,18.3059935 M96.9836452,18.4308645 C96.3477742,22.2332194 95.6416774,23.4157677 94.3834839,23.4157677 C93.3958065,23.4157677 92.7326129,22.7318 92.3735806,22.0132839 L93.6107742,14.5968968 C94.1396129,13.9425097 95.1555161,13.2273806 96.0241935,13.2273806 C97.4921613,13.2273806 97.5809032,14.8457355 96.9836452,18.4308645" id="Fill-21" fill="#1D1D1B"></path>
                    <path d="M114.148458,18.3059935 C115.069297,12.7893161 113.144297,9.79783226 109.641135,9.79783226 C106.108845,9.79783226 103.144684,12.8514129 102.223168,18.3680903 C101.303458,23.8838645 103.231845,26.8446387 106.765265,26.8446387 C110.266619,26.8446387 113.227619,23.8213161 114.148458,18.3059935 M110.54549,18.3680903 C110.087555,21.1098323 109.054265,23.353671 107.378329,23.353671 C105.670781,23.353671 105.316039,21.3591226 105.825006,18.3059935 C106.335781,15.2510581 107.293426,13.2867677 108.997361,13.2867677 C110.675329,13.2867677 111.049265,15.345671 110.54549,18.3680903" id="Fill-23" fill="#1D1D1B"></path>
                    <path d="M124.792455,14.224271 C124.276487,13.7252387 123.70181,13.412271 122.861584,13.412271 C121.9351,13.412271 121.101423,13.911529 120.355132,14.814529 L118.40281,26.5004645 L114.867358,26.5004645 L117.601197,10.1410129 L121.133713,10.1410129 L120.944939,11.2630452 C121.663681,10.5456581 122.896584,9.7977871 124.064455,9.7977871 C125.112874,9.7977871 125.753035,10.0793677 126.409229,10.6389161 L124.792455,14.224271 Z" id="Fill-25" fill="#1D1D1B"></path>
                    <g id="Group-29" transform="translate(124.419355, 9.709677)">
                        <mask id="mask-4" fill="white">
                            <use xlink:href="#path-3"></use>
                        </mask>
                        <g id="Clip-28"></g>
                        <path d="M10.6001226,15.1096355 L13.0517032,0.431312903 L9.51670323,0.431312903 L9.36721935,1.33566774 C8.80270323,0.586667742 7.89789677,0.0883129032 6.85286452,0.0883129032 C3.4081871,0.0883129032 1.37796129,3.64024839 0.546993548,8.62695806 C-0.414716129,14.3924742 0.770993548,17.1351194 3.70602581,17.1351194 C4.84454194,17.1351194 6.05147742,16.5421516 6.97525161,15.6700871 C6.47870323,18.6308613 5.82183226,19.3477968 2.01992903,20.063829 L2.51783226,22.8064742 C8.03315484,22.058829 9.78315484,20.0019581 10.6001226,15.1096355 Z M7.52960645,12.3353774 C7.00212258,12.9893129 5.98463871,13.7060226 5.11663871,13.7060226 C3.6498,13.7060226 3.56173548,12.0867645 4.16057419,8.50253871 C4.7944129,4.69905484 5.5011871,3.51763548 6.75757419,3.51763548 C7.74660645,3.51763548 8.40821935,4.20182903 8.76815484,4.91876452 L7.52960645,12.3353774 Z" id="Fill-27" fill="#1D1D1B" mask="url(#mask-4)"></path>
                    </g>
                    <g id="Group-32">
                        <mask id="mask-6" fill="white">
                            <use xlink:href="#path-5"></use>
                        </mask>
                        <g id="Clip-31"></g>
                        <path d="M17.6090419,4.69672903 L28.5270097,4.69672903 C26.2371065,1.89356774 22.6867516,0.157567742 18.4203645,0.157567742 C9.90723548,0.157567742 1.77142903,7.06769677 0.24746129,15.5923419 C-0.511925806,19.8420194 0.516170968,23.6911161 2.79297742,26.4823097 L4.78165484,15.5923419 C5.85717097,9.57482581 11.6001065,4.69672903 17.6090419,4.69672903" id="Fill-30" fill="#002D74" mask="url(#mask-6)"></path>
                    </g>
                    <path d="M25.9016935,17.8554645 L13.1881129,17.8554645 L12.394629,22.2038194 L23.1260806,22.2038194 C20.6729194,24.8055613 17.2404355,26.4869161 13.7146935,26.4869161 L2.79672581,26.4869161 C5.08662903,29.2912065 8.63698387,31.0263032 12.9035968,31.0263032 C19.0532097,31.0263032 25.0052419,27.419271 28.410629,22.2038194 C29.2935323,20.8510129 30.0005323,19.3895935 30.5004677,17.8554645 L25.9016935,17.8554645 Z" id="Fill-33" fill="#002D74"></path>
                    <polygon id="Fill-35" fill="#00754A" points="33.9366774 11.2038839 28.5254516 4.69681935 27.7355806 9.0280129 14.799129 9.0280129 13.9889355 13.4642065 26.9258387 13.4642065 26.1197097 17.8588516"></polygon>
                    <path d="M27.7371387,9.02808065 L28.5265581,4.69666129 L17.6090419,4.69666129 C11.6001065,4.69666129 5.85717097,9.57475806 4.78165484,15.5922742 L2.79297742,26.4867581 L13.7145581,26.4867581 C17.2403,26.4867581 20.6727839,24.805629 23.126171,22.2034355 L12.3947194,22.2034355 L13.1882032,17.8555323 L26.122171,17.8555323 L26.9269452,13.4642742 L13.9904935,13.4642742 L14.8004613,9.02808065 L27.7371387,9.02808065 Z" id="Fill-37" fill="#FEFEFE"></path>
                    <polygon id="Fill-39" fill="#1D1D1B" points="205.709023 8.39211935 206.2837 4.94292581 209.815765 4.94292581 209.24199 8.39211935"></polygon>
                    <polygon id="Fill-41" fill="#1D1D1B" points="61.5989613 8.39211935 62.1702516 4.93502258 65.7023161 4.93502258 65.131929 8.39211935"></polygon>
                    <polygon id="Fill-43" fill="#1D1D1B" points="55.9630581 8.39211935 56.5343484 4.93502258 60.0664129 4.93502258 59.4960258 8.39211935"></polygon>
                </g>
            </g>
        </g>
    </g>
</svg>